<svg width="25" height="24" viewBox="0 0 25 24" fill="none" xmlns="http://www.w3.org/2000/svg">
<path d="M21.3901 10.3033C21.5165 9.4554 21.4751 8.58735 21.2658 7.7527C20.9893 6.6501 20.4199 5.6059 19.5577 4.74365C18.6954 3.88141 17.6512 3.31205 16.5487 3.03558C15.714 2.82629 14.8459 2.78484 13.998 2.91123" stroke="#043E5F" stroke-width="2" stroke-linecap="round" stroke-linejoin="round"/>
<path d="M17.5953 9.90173C17.7307 8.99343 17.4488 8.03493 16.7496 7.33573C16.0503 6.63653 15.0918 6.35458 14.1836 6.48998" stroke="#043E5F" stroke-width="2" stroke-linecap="round" stroke-linejoin="round"/>
<path d="M7.68735 4.39746C8.05065 4.39746 8.38535 4.59447 8.56165 4.91209L9.7849 7.1155C9.94505 7.404 9.95255 7.75295 9.805 8.0481L8.6266 10.4049C8.6266 10.4049 8.9681 12.1606 10.3973 13.5898C11.8265 15.019 13.5764 15.3546 13.5764 15.3546L15.9328 14.1764C16.2282 14.0287 16.5774 14.0364 16.866 14.1968L19.0756 15.4253C19.3929 15.6017 19.5897 15.9363 19.5897 16.2993V18.8361C19.5897 20.1279 18.3898 21.061 17.1657 20.6479C14.6518 19.7997 10.7494 18.1846 8.276 15.7111C5.80255 13.2377 4.18745 9.3354 3.33918 6.82145C2.92617 5.5974 3.85922 4.39746 5.15104 4.39746H7.68735Z" stroke="#043E5F" stroke-width="2" stroke-linejoin="round"/>
</svg>
